<?xml version="1.0" encoding="UTF-8"?>
<svg id="uuid-99b52b18-0e04-476d-b3c6-3446efbb527d" data-name="Layer 2" xmlns="http://www.w3.org/2000/svg" viewBox="0 0 134.11 139.07">
  <g id="uuid-2cab052d-3f2e-4c4d-9186-8fc50a0f8267" data-name="Layer 1">
    <rect width="134.11" height="139.07" rx="15.16" ry="15.16" style="fill: #231f20; stroke-width: 0px;"/>
    <path d="m30.3,97.65c10.45-.02,9.66-.9,9.62,9.57,0,1.95,0,3.9,0,5.84,0,2.38-1.16,3.63-3.56,3.64-4,.02-8.01-.03-12.01.02-2.48.03-3.54-1.26-3.56-3.59-.02-4-.03-8.01,0-12.01.02-2.38,1.23-3.55,3.65-3.48,1.95.06,3.89.01,5.84.01Z" style="fill: #fff; stroke-width: 0px;"/>
    <path d="m20.79,70.63c-.04-10.52-.67-9.45,9.38-9.46,2.05,0,4.11-.02,6.16,0,2.36.03,3.59,1.23,3.59,3.62,0,3.89-.05,7.78.02,11.68.04,2.63-1.26,3.74-3.76,3.74-3.89,0-7.78-.04-11.67.01-2.58.03-3.77-1.19-3.72-3.75.04-1.95,0-3.89,0-5.84Z" style="fill: #fff; stroke-width: 0px;"/>
    <path d="m89.75,27.3c8.59,0,17.19.04,25.78-.02,3.5-.02,6.51.69,6.46,4.92-.04,4.27-3.17,4.79-6.61,4.79-17.35-.03-34.7-.03-52.05,0-3.49,0-6.52-.69-6.47-4.93.05-4.26,3.16-4.8,6.61-4.78,8.76.05,17.52.02,26.28.02Z" style="fill: #fff; stroke-width: 0px;"/>
    <path d="m89.62,64.89c8.59,0,17.19.07,25.78-.03,3.52-.04,6.49.57,6.55,4.8.06,4.1-2.94,4.57-6.19,4.57-17.52-.02-35.04-.02-52.56,0-3.2,0-6.27-.33-6.29-4.46-.02-4.22,2.87-4.95,6.43-4.9,8.76.1,17.52.03,26.28.03Z" style="fill: #fff; stroke-width: 0px;"/>
    <path d="m89.41,111.77c-8.92,0-17.84-.04-26.75.02-3.23.02-5.69-.91-5.76-4.52-.07-3.59,2.24-4.73,5.54-4.72,18,.04,36,.04,54,0,3.31,0,5.6,1.16,5.51,4.74-.09,3.62-2.57,4.52-5.79,4.5-8.92-.07-17.84-.02-26.75-.02Z" style="fill: #fff; stroke-width: 0px;"/>
    <path d="m26.38,46.59c-1.29-.13-2.7-.47-3.7-1.76-2.52-3.27-5.13-6.47-7.54-9.81-1.67-2.31-1.56-4.8.73-6.6,2.46-1.93,5.27-1.65,6.87,1.03,2.89,4.87,5.01,4.14,7.75-.13,2.13-3.31,4.92-6.2,7.37-9.31,2.1-2.67,4.77-3.29,7.28-1.13,2.36,2.03,1.91,4.75.05,7.1-4.8,6.09-9.67,12.12-14.46,18.23-1.09,1.39-2.37,2.25-4.34,2.39Z" style="fill: #fff; stroke-width: 0px;"/>
  </g>
</svg>